<svg width="110" height="131" viewBox="0 0 110 131" fill="none" xmlns="http://www.w3.org/2000/svg">
<path d="M89.4638 115.048C89.7155 114.946 89.7323 114.79 89.5144 114.579C89.4659 114.475 89.4177 114.372 89.3692 114.269C89.0524 113.59 88.7346 112.915 88.4886 112.206C88.0072 110.822 87.8697 109.341 87.3724 107.963C86.9448 106.779 86.2814 105.72 85.925 104.504C85.5581 103.253 85.2163 101.993 84.8656 100.737C84.7773 100.421 84.734 99.9835 84.5761 99.6994C84.4425 99.4596 84.1147 99.3223 83.9885 99.0514C83.847 98.7476 83.9133 98.7332 83.9803 98.4223C84.2405 98.3634 84.2777 98.2117 84.0929 97.9671C84.0453 97.7983 83.9983 97.6298 83.9512 97.4611C83.5095 95.8787 83.0288 94.308 82.639 92.7117C82.2554 91.141 81.8019 89.5833 81.3236 88.0388C80.8615 86.5461 80.0501 85.258 79.5085 83.8039C78.9834 84.1543 78.1882 84.0325 78.1193 83.3324C78.0875 83.0069 78.2944 82.5779 78.4745 82.3211C78.7901 81.8695 78.8179 81.9301 78.5983 81.3711C78.0427 79.9561 77.7948 78.4478 77.2207 77.0471C77.3483 77.1743 77.4767 77.3007 77.6056 77.4267C77.3907 76.837 76.9426 75.9434 77.9126 75.801C78.8073 75.6698 79.4478 76.6405 79.4999 77.4235C79.5281 77.8473 79.1633 78.3369 79.1937 78.674C79.2205 78.9722 79.5739 79.162 79.882 79.3897C80.624 79.9374 81.4051 80.4302 82.2373 80.8264C85.9502 82.5961 90.5424 82.5227 94.5473 82.0536C98.7461 81.5621 102.615 79.5147 105.653 76.5758C108.574 73.7507 111.025 69.0656 109.457 64.9464C107.816 60.636 102.792 59.1327 98.6568 58.7503C97.554 58.6488 94.3266 58.5922 95.1616 56.7191C95.9774 54.8873 98.8092 54.3206 100.4 53.4272C104.236 51.2737 107.376 47.3168 108.078 42.8869C108.39 40.9226 108.24 38.8371 107.176 37.1167C105.996 35.208 103.982 34.2031 101.82 33.8889C99.6156 33.5685 97.4253 33.9356 95.3211 34.6024C92.8796 35.3759 90.4599 36.2565 88.1027 37.263C83.4857 39.2333 78.8277 41.633 74.8578 44.7387C76.9683 41.5685 78.4271 37.9568 79.9621 34.4801C81.5737 30.8302 82.6701 27.0085 83.0765 23.025C83.4511 19.3523 82.948 15.5135 81.4537 12.1279C81.0528 11.2189 80.575 10.345 80.0235 9.52024C79.9298 9.38013 79.726 8.99577 79.6064 8.92704C79.4683 8.84791 79.2509 8.93903 79.1059 8.87312C78.6868 8.68385 78.969 8.92616 78.8519 8.55995C78.7282 8.17436 78.8956 8.14581 78.6733 7.78965C78.1776 6.99256 77.1847 6.31161 76.4806 5.70978C75.679 5.02512 74.8594 4.36072 74.0389 3.69898C71.1805 1.39441 67.7574 -0.368596 63.9918 0.066165C62.0911 0.285748 60.3597 1.0608 58.9693 2.39047C57.5772 3.72189 56.4921 5.4879 54.7995 6.46933C51.3497 8.46884 48.7695 3.60134 45.2634 4.18079C41.5334 4.79742 39.6303 8.91312 39.4589 12.3211C39.3564 14.3636 39.553 16.4276 40.181 18.3781C40.8402 20.4245 41.9699 22.2451 43.1238 24.0388C44.3586 25.9585 45.781 27.7649 47.4755 29.2946C48.7804 30.4723 50.2005 31.5128 51.4901 32.7083C51.5603 31.9798 52.5198 31.9225 52.4475 32.7101C52.3968 32.8505 52.3316 32.9838 52.2519 33.1103C52.0287 33.2781 52.0607 33.4293 52.3465 33.5637C52.5135 33.8769 52.8912 34.1753 53.1189 34.4548C54.2373 35.8297 55.1962 37.3485 56.0752 38.8879C57.6741 41.6871 58.3566 44.8074 58.9016 47.9581C56.6213 43.8436 53.8226 40.0309 51.1163 36.1931C50.4602 35.2628 49.7731 34.3457 49.0348 33.4797C48.6259 33.0003 48.1944 32.5437 47.7547 32.0933C47.338 31.6668 47.3438 31.5036 46.9019 31.8252C46.3925 32.1955 45.7665 33.1297 45.1674 32.1743C44.9098 31.7637 45.1759 30.7948 45.5353 30.5047C45.7857 30.5666 46.0475 30.6244 46.3023 30.6826C42.9927 27.6561 39.1074 25.4896 34.9964 23.7822C31.3978 22.2873 27.7601 21.1048 23.825 21.349C21.941 21.4657 19.9247 21.6386 18.1641 22.3743C16.1239 23.2269 14.8717 24.9364 14.3736 27.0735C13.45 31.0394 14.7295 35.5289 12.7526 39.2507C10.5326 43.4304 5.16063 43.528 1.97659 46.5877C1.45076 47.0924 0.492471 48.0702 0.42672 48.8484C0.39297 49.25 0.376184 49.1344 0.764395 49.3248C0.950457 49.4159 1.29163 49.6756 1.4894 49.68C1.7928 49.688 2.64774 49.3064 2.88539 49.1103C3.13476 48.9046 3.32589 48.4732 3.57036 48.2277C3.92639 47.8703 4.33524 47.567 4.7551 47.2905C5.60514 46.7303 6.52863 46.2908 7.44915 45.8622C9.30067 45.0001 11.1639 44.1198 12.6606 42.689C14.2357 41.1826 15.1371 39.2156 15.5131 37.0785C15.8931 34.9181 15.7609 32.7189 15.7885 30.5368C15.8132 28.5917 15.885 26.294 17.3436 24.8285C18.8257 23.3392 21.2742 23.1623 23.2439 23.0063C25.5344 22.8248 27.722 23.0276 29.9268 23.6913C34.1791 24.972 38.4984 27.0279 42.041 29.7304C45.4246 32.3114 47.976 35.3793 50.3336 38.9146C52.7399 42.5233 55.2441 46.0677 57.6718 49.6622C58.4171 50.766 59.3518 52.5695 60.5552 53.2561C61.9217 54.0356 60.5049 51.2804 60.475 50.9923C60.4431 50.6879 60.6152 50.2671 60.653 49.9567C60.7086 49.5056 60.7416 49.0504 60.7726 48.5964C60.8413 47.5942 60.81 46.5851 60.7423 45.5829C60.611 43.6371 60.2887 41.6911 59.6291 39.8511C58.3225 36.2086 56.0124 32.7721 53.1292 30.2147C51.5405 28.8057 49.7476 27.6299 48.2724 26.0926C46.8582 24.619 45.6955 22.9279 44.5781 21.2218C42.5303 18.0953 41.2176 14.0148 42.268 10.2636C42.7097 8.68666 44.0195 6.6683 45.7997 6.45788C47.5206 6.25416 49.2055 8.06246 50.7296 8.66958C54.8048 10.2928 57.3093 7.15222 59.7538 4.4039C62.4074 1.41926 66.3408 1.18241 69.819 2.86242C70.6874 3.28167 71.5115 3.79416 72.2871 4.36884C72.4805 4.51194 72.7473 4.82581 72.9743 4.90423C73.2562 5.00116 73.3337 4.90757 73.6523 4.80042C74.0814 4.65556 74.5272 4.56534 74.9797 4.54084C74.7176 4.74844 74.1423 5.27713 74.0837 5.6021C74.0275 5.91367 74.8169 6.40113 75.1112 6.64892C75.8747 7.29216 76.6284 7.95214 77.31 8.68385C78.6758 10.1494 79.6731 11.9379 80.3264 13.8315C81.5942 17.5049 81.5637 21.3707 80.812 25.1454C80.0125 29.1615 78.3636 32.7184 76.6571 36.4012C75.843 38.1584 75.0937 39.9454 74.2108 41.6691C73.3373 43.3747 72.313 45.0004 71.3555 46.6582C70.7996 47.6222 70.4612 48.8389 69.7105 49.6122C68.4502 50.9094 67.2204 52.3025 66.2296 53.8231C65.9391 54.2682 65.2155 55.1723 65.3176 55.7478C65.4399 56.4362 66.1866 55.8067 66.5031 55.5573C67.8426 54.5031 69.0177 53.1909 70.2409 52.0054C73.0366 49.2969 75.8348 46.5296 79.1059 44.4058C82.5247 42.1858 86.1974 40.19 89.9367 38.5794C92.4267 37.5071 95.1396 36.3133 97.7953 35.7465C99.7049 35.3389 101.834 35.3065 103.651 36.1129C105.627 36.9897 106.61 38.9457 106.625 41.059C106.859 40.6697 108.051 41.3526 107.97 41.7793C107.824 42.542 106.777 41.6601 106.621 41.3241C106.563 43.8502 105.517 46.1935 103.981 48.1534C102.056 50.6084 99.6231 51.89 96.8437 53.1158C95.5588 53.6831 94.3023 54.3879 93.57 55.6456C93.2751 56.1525 93.0704 56.724 93.0508 57.3163C93.0371 57.7324 93.1141 58.6461 93.4951 58.8957C94.2796 59.4087 94.8341 58.2299 95.5785 58.3546C95.8655 58.4028 96.3974 58.8026 96.6239 58.9552C97.2494 59.377 97.3573 59.9726 97.08 60.6881C100.784 61.2773 106.357 61.8051 107.412 66.3354C108.362 70.422 104.756 74.3393 101.707 76.4289C100.108 77.5245 98.3315 78.4448 96.4398 78.8898C94.3186 79.3888 92.1067 79.4156 89.9384 79.3747C88.131 79.3407 86.2649 79.2073 84.5502 78.5856C82.5797 77.8708 80.9118 76.496 79.3887 75.0851C77.7974 73.6109 76.5062 72.0074 75.2763 70.2201C74.0477 68.434 72.7711 66.6357 71.0719 65.2678C70.3944 64.7224 69.6544 64.227 68.8514 63.8906C68.5515 63.7651 66.7461 63.0558 66.5106 63.5764C66.3873 63.8497 67.984 64.786 68.1829 64.9409C68.5856 65.2553 68.9988 65.5746 69.2052 66.0291C69.4017 66.4613 69.4984 66.96 69.6722 67.4055C70.3789 69.2237 71.2634 71.0161 71.8209 72.8858C72.0426 73.6291 72.2482 74.3848 72.591 75.0837C73.0658 76.0517 73.8424 76.8101 74.3869 77.7328C74.8255 78.476 75.0449 79.3175 75.2819 80.1421C75.5828 81.1896 76.0382 82.1543 76.4579 83.1563C77.2805 85.1199 78.4259 86.9491 79.1306 88.9495C80.7912 93.6632 82.3304 98.4496 83.8402 103.207C84.1761 104.267 84.4515 105.359 84.9045 106.375C85.4125 107.513 85.9297 108.553 86.1842 109.784C86.4237 110.943 86.6073 112.103 86.9915 113.226C87.347 114.266 87.8003 115.271 88.1922 116.297C88.3574 116.161 88.5094 116.01 88.6469 115.844C88.8693 115.582 89.2949 115.333 89.4638 115.048Z" fill="#75645D"/>
<path d="M90.7855 117.429C90.6211 117.061 90.4565 116.694 90.292 116.326C89.8868 116.808 90.307 117.133 90.7855 117.429Z" fill="#75645D"/>
<path d="M91.2419 119.758C91.1167 119.97 91.0126 120.178 90.9409 120.411C91.0254 120.195 91.1326 119.981 91.2419 119.758Z" fill="#75645D"/>
<path d="M92.8703 123.003C92.3429 121.771 92.0124 120.487 91.5549 119.231C91.4289 119.389 91.3472 119.581 91.2421 119.758C91.1328 119.981 91.0256 120.195 90.9412 120.411C90.846 120.72 90.7708 121.036 90.8217 121.365C90.764 120.992 90.8305 120.694 90.9412 120.411C91.0128 120.178 91.1169 119.97 91.2421 119.758C91.2911 119.659 91.3411 119.562 91.3858 119.455C91.5602 119.036 91.5105 118.974 91.1298 118.653C90.7684 118.349 90.3599 118.088 89.9792 117.808C89.6709 117.582 89.3051 117.198 88.9266 117.554C88.6949 117.771 88.7721 117.66 88.8443 117.988C88.8889 118.192 89.0057 118.404 89.0812 118.599C89.4294 119.493 89.7148 120.386 89.9645 121.314C90.3789 122.856 91.1071 124.231 91.617 125.733C91.7461 126.113 91.9309 127.509 92.2562 127.676C92.7364 127.922 93.5525 127.05 93.9153 127.404C93.9269 127.149 93.9122 126.891 93.8977 126.637C93.8512 125.356 93.3666 124.161 92.8703 123.003Z" fill="#75645D"/>
<path d="M88.4887 128.293C88.837 128.609 89.1448 128.963 89.5813 129.145C89.4433 127.576 89.0539 126.08 88.5539 124.593C88.0176 122.998 87.7791 121.363 87.3603 119.738C86.3605 120.665 85.5077 119.598 84.9712 118.808C85.5567 121.007 85.7543 123.269 86.5076 125.423C86.8626 126.439 87.1826 127.461 87.5087 128.486C87.764 129.286 88.0295 130.433 88.7071 131C88.1049 130.126 87.8106 129.235 88.4887 128.293Z" fill="#75645D"/>
<path d="M86.3612 116.5C85.9218 115.129 85.3883 113.806 84.8789 112.46C84.3634 111.097 84.0899 109.674 83.6574 108.285C83.0879 106.455 82.053 104.819 81.4542 102.988C79.5854 97.2754 77.8848 91.5153 76.0445 85.7964C75.569 84.3191 74.7987 82.9984 74.2445 81.5572C73.7036 80.1514 73.1145 78.7551 72.6107 77.3366C72.0382 77.8095 69.9251 77.3997 69.6003 76.7334C68.9748 75.4506 71.1129 74.8541 71.9355 75.0738C71.4912 73.6874 70.7347 72.6175 69.9048 71.4454C69.1507 70.3801 68.7819 69.205 68.2738 68.0149C67.1647 65.4173 65.0137 62.5184 62.549 61.0994C63.4215 60.5113 63.0023 60.2472 62.1608 60.3406C61.6481 60.3972 61.6418 60.5251 61.3083 60.1538C61.0322 59.8466 60.81 59.4866 60.5401 59.172C60.3167 59.5914 60.0582 59.6247 59.7314 59.222C59.3953 58.8083 59.5874 58.6784 59.9319 58.4361C59.6819 58.0873 59.4626 57.7091 59.1536 57.4074C58.8011 57.0627 58.3523 56.8799 57.9683 56.5826C57.2232 56.005 56.6794 55.1405 55.9699 54.4982C55.2758 53.8696 54.4774 53.4103 53.779 52.7953C52.9926 52.1027 52.2069 51.3863 51.3666 50.7602C47.9016 48.1756 43.9903 46.6099 39.9228 45.2845C38.9946 44.9823 38.0641 44.9459 37.0946 44.9516C36.6987 44.9539 35.1121 45.0164 35.8158 45.6819C36.2991 46.1392 37.6916 46.0472 38.3091 46.0872C39.4358 46.1604 40.5637 46.5713 41.6481 46.876C45.2936 47.9001 48.6499 49.5531 51.4357 52.1971C52.2163 52.9382 52.9635 53.7688 53.8335 54.4028C54.6575 55.0026 55.4582 55.7221 56.0848 56.5322C56.3522 56.8777 56.5727 57.256 56.895 57.5556C57.2841 57.9179 57.7875 58.1282 58.1635 58.5058C58.9229 59.2679 59.4822 60.1162 60.3298 60.8136C60.0054 60.9304 59.6873 61.1243 59.3566 61.2136C58.9348 61.3273 58.793 61.2066 58.3901 61.0471C57.4629 60.6802 56.4351 60.5847 55.4456 60.6092C54.3761 60.6351 53.3659 60.9773 52.3188 61.06C51.5394 61.1216 50.614 60.3672 49.8467 60.0537C45.7112 58.3638 41.2334 58.3194 36.8454 58.2813C34.8122 58.2637 32.7766 58.1973 30.7472 58.3634C28.4407 58.5522 26.1892 59.0897 23.8998 59.402C21.981 59.6633 20.0583 59.5909 18.1359 59.3963C15.8348 59.1637 13.5068 58.8895 11.2684 58.2848C9.07312 57.6911 6.90543 56.7092 5.09081 55.3177C3.23614 53.8953 1.4717 51.467 2.885 49.1105C2.51532 49.2618 2.01694 49.5787 1.62873 49.6236C1.22793 49.6702 0.711539 49.299 0.329623 49.1117C-1.16954 53.6066 2.73094 57.1522 6.26419 59.0849C9.99643 61.126 14.3552 61.8785 18.543 62.2717C18.3127 62.1279 18.0842 61.9815 17.8477 61.8491C18.6437 61.2954 19.7154 61.5744 20.5238 61.0459C20.9066 60.7958 21.0563 60.4412 21.4763 60.8527C21.879 61.2473 21.9523 61.9931 21.6499 62.4326C24.0241 62.4013 26.3275 61.9429 28.6669 61.5904C30.9423 61.2478 33.2207 61.2672 35.5152 61.2429C40.307 61.192 45.0218 60.9087 49.7019 61.8433C49.1255 62.0453 48.5554 62.2661 47.9911 62.501C48.4822 63.0515 49.1054 63.5767 48.6249 64.3128C48.1447 65.0475 47.1288 65.7005 46.4841 66.2984C49.8685 64.4196 53.6352 62.431 57.5572 62.1258C56.8985 62.7387 56.327 63.2623 55.5941 63.7894C54.7923 64.3664 54.0285 65.1769 53.4763 65.9981C52.3076 67.7352 50.9956 69.358 50.053 71.2426C48.9578 73.4333 48.3921 75.7308 47.5678 78.0086C47.256 78.8695 47.1023 79.7938 46.8676 80.6788C46.5783 81.7694 46.1326 82.8726 45.9757 83.989C45.8626 84.7961 45.6101 85.9251 45.7865 86.7221C46.0107 87.7344 46.5414 86.7357 46.6959 86.2437C46.9704 85.3701 46.9692 84.4761 47.1682 83.5912C47.3945 82.5839 47.6727 81.5917 47.8865 80.5786C48.7154 76.6481 49.8033 72.8311 52.2833 69.5828C52.9704 68.6832 53.7178 67.839 54.3677 66.9131C54.9724 66.0515 55.8153 65.2537 56.7086 64.709C57.5322 64.2069 58.1271 63.3769 58.9581 62.9345C59.7885 62.4925 60.6879 62.1166 61.5364 61.6983C61.948 62.5651 62.5282 63.3328 62.8934 64.2212C63.2814 65.1658 63.7089 66.094 64.1328 67.0231C64.645 66.5483 65.1569 66.0728 65.6689 65.5981C66.0547 66.0198 66.5567 66.4108 67.0435 66.8008C67.7859 67.3953 68.1295 68.2983 68.552 69.1225C68.6618 69.3352 68.772 69.5476 68.8823 69.7601C69.1322 69.995 69.1018 70.1817 68.7915 70.3189C68.6992 70.477 67.9721 71.2302 67.7972 71.2547C67.5311 71.2924 66.9421 70.824 66.6831 70.725C66.3656 70.603 66.0697 70.554 65.738 70.5054C66.7155 72.6032 67.807 74.6449 68.7695 76.75C69.7514 78.8975 70.5317 81.1282 71.2712 83.3701C71.8393 82.5067 72.8613 83.983 72.8809 84.5406C72.9223 85.7081 71.9994 84.8791 71.6255 84.4615C72.9045 88.4593 73.9724 92.7212 72.18 96.7509C70.369 100.82 66.2105 103.041 61.9228 103.292C58.2534 103.507 54.3625 102.76 51.1702 100.893C49.4069 99.8609 47.8984 98.5319 46.2438 97.3483C44.7291 96.2645 42.847 95.3009 41.0311 96.2612C40.1556 96.7245 39.4813 97.4831 38.7615 98.1475C37.8639 98.9764 36.8906 99.7218 35.8586 100.373C34.1458 101.453 32.2331 102.307 30.2364 102.672C27.9119 103.098 25.471 102.726 23.4976 101.376C19.9792 98.9668 19.3859 94.4883 19.2245 90.5375C19.0566 86.4317 19.6716 81.729 22.1049 78.3057C24.6764 74.6872 29.3281 74.9589 33.0487 73.4067C34.9654 72.6073 36.7134 71.4292 38.5567 70.4774C40.5357 69.4559 42.5549 68.5166 44.4951 67.4201C43.4922 67.3426 42.9685 65.4879 43.355 64.7423C41.4349 65.7523 39.4512 66.6333 37.5316 67.6436C35.5051 68.7103 33.5783 70.1073 31.432 70.9187C27.5532 72.3845 23.2976 72.4818 20.4743 75.9849C20.9256 75.8092 21.2533 76.1816 21.0351 76.5945C20.8293 76.9836 20.0584 77.1181 20.0626 76.5284C18.0703 79.3185 17.1341 82.8768 16.8246 86.2645C16.5149 89.6534 16.684 93.4205 17.6713 96.6933C19.2007 101.762 23.4862 105.263 28.9209 104.951C32.3889 104.752 35.7945 103.024 38.4778 100.884C39.4734 100.09 40.31 99.1371 41.2724 98.312C42.52 97.2424 43.6902 97.6953 44.9536 98.5157C47.0183 99.8559 48.8177 101.478 51.0104 102.648C54.1296 104.311 57.7602 104.967 61.2686 104.957C65.1404 104.946 69.026 103.564 71.7129 100.684C74.4075 97.7967 75.388 93.8715 75.0099 89.9932C76.6729 94.7322 78.4877 99.4153 80.1492 104.155C80.5255 105.229 81.0183 106.204 81.5121 107.225C82.0308 108.296 82.2987 109.435 82.5601 110.591C83.0912 112.943 84.0047 115.178 84.6241 117.507C84.7741 117.173 84.9591 116.521 85.2449 116.405C85.4878 116.307 86.1226 116.424 86.3612 116.5Z" fill="#75645D"/>
<path d="M65.9845 52.8305C66.398 52.1104 66.5379 51.2999 66.8583 50.5428C67.1841 49.773 67.6957 49.1012 68.0241 48.3304C68.7234 46.689 69.0242 45.0472 69.4572 43.3323C70.1593 40.5519 70.4947 37.7212 70.3146 34.8525C70.2062 33.1259 69.9106 31.5543 69.5065 29.8817C69.3051 29.0465 69.2369 28.1872 69.0169 27.3558C68.7596 26.3853 68.3907 25.4317 68.0414 24.4908C67.9433 24.5336 67.3374 24.7197 67.2516 24.8664C67.1127 25.1039 67.5415 25.8702 67.6693 26.1699C68.2609 27.4605 68.3964 28.8264 68.7533 30.1831C68.9723 31.017 69.2239 31.7966 69.3096 32.6572C69.4353 33.9195 69.4572 35.1804 69.425 36.4481C69.3668 38.7299 68.9051 40.9439 68.2803 43.1302C67.9477 44.2928 67.7461 45.4492 67.2948 46.5776C67.1111 47.0365 66.7623 47.5754 66.6554 48.0553C66.5117 48.701 66.5304 49.0618 66.0395 49.5901C65.997 49.477 65.9659 49.3608 65.946 49.2414C65.602 49.8224 65.3764 50.4207 65.1528 51.0565C64.8637 51.8776 64.404 52.5006 63.9203 53.2139C63.0753 54.4601 62.1684 56.0458 61.8031 57.5231C61.4146 59.0946 63.0316 57.0399 63.2825 56.7026C64.2032 55.4655 65.2154 54.1682 65.9845 52.8305Z" fill="#75645D"/>
<path d="M67.2857 22.5917C67.1141 22.1759 66.9725 21.7479 66.8001 21.3328C66.4535 20.4977 65.9572 19.7693 65.4293 19.0436C65.2158 18.7498 63.4968 16.2363 63.2465 17.1694C63.1233 17.6267 63.8418 18.5058 64.0509 18.8616C64.2688 19.2332 64.4934 19.5922 64.7359 19.9479C64.9022 20.1918 65.1626 20.8235 65.3863 20.6092C65.4036 20.7254 65.4034 20.8415 65.3861 20.9577C65.779 21.6217 66.0273 22.3511 66.3461 23.0516C66.4785 23.3426 66.6387 23.8041 66.9321 23.9797C67.1986 24.1399 67.0164 24.1506 67.3299 24.0163C67.4119 23.9814 67.6926 23.7292 67.7112 23.6395C67.7577 23.4148 67.3726 22.8017 67.2857 22.5917Z" fill="#75645D"/>
<path d="M88.5387 57.6247C87.7146 57.3251 86.7976 56.9717 85.9477 56.7609C85.3836 56.6215 84.8439 56.8159 84.2791 56.7629C83.88 56.7252 83.5121 56.5387 83.1239 56.4536C82.1864 56.2481 81.2535 56.3031 80.3101 56.3361C79.1633 56.3761 78.0084 56.15 76.8593 56.145C75.5854 56.1396 74.3183 56.2502 73.0503 56.3635C72.1422 56.4402 71.307 56.7616 70.3864 56.821C69.4485 56.8815 68.5208 57.1546 67.6035 57.3587C66.7985 57.5374 65.9141 57.6086 65.1502 57.9265C64.7346 58.0992 62.9238 58.7499 62.953 59.3517C62.9887 60.0843 64.5455 59.4044 64.8447 59.2817C65.768 58.9043 66.6454 58.6908 67.5965 58.4094C68.5076 58.1399 69.444 57.7811 70.3858 57.6638C71.2721 57.5538 72.1197 57.2685 72.9968 57.1786C75.044 56.9684 77.115 57.1763 79.1433 57.4437C80.0054 57.5573 80.8572 57.493 81.7143 57.6114C82.6175 57.7362 83.5378 58.1678 84.4282 58.2074C84.8476 58.2258 85.2437 58.1209 85.6609 58.2078C86.0874 58.2961 86.4751 58.5153 86.9049 58.6013C87.4397 58.7085 89.2697 59.0939 89.6707 58.599C90.0982 58.071 88.9217 57.7633 88.5387 57.6247Z" fill="#75645D"/>
<path d="M23.5839 94.1273C23.2967 93.6101 23.2873 93.3894 23.1892 92.7968C23.0956 92.2302 22.7895 91.7653 22.6548 91.2281C22.308 89.8446 22.3435 88.2721 22.0996 86.8686C21.9966 86.2757 22.1617 85.4337 22.2454 84.8151C22.3246 84.2286 22.6506 83.7012 22.6137 83.108C22.5854 82.7104 22.7478 81.6412 22.0265 81.8849C21.5269 82.0538 21.5853 82.8271 21.5367 83.2253C21.4012 84.3365 21.2214 85.4228 21.2548 86.5533C21.2649 86.8971 21.4283 87.209 21.4639 87.55C21.5201 88.0898 21.469 88.6599 21.4819 89.2038C21.4963 89.8243 21.4736 90.4429 21.4949 91.0623C21.5164 91.6964 21.7394 92.2043 21.8567 92.8183C21.9429 93.2708 21.8399 93.7972 21.9604 94.226C22.0335 94.4863 22.2711 94.6419 22.3661 94.8807C22.4631 95.1244 22.4199 95.3588 22.4666 95.6121C22.5661 96.1497 23.5671 97.9172 23.9628 96.855C24.1379 96.3843 23.8296 94.5705 23.5839 94.1273Z" fill="#75645D"/>
<path d="M25.3742 91.3011C25.3814 91.0165 25.1498 90.8393 25.1397 90.5607C25.132 90.3346 25.2957 90.0472 25.3235 89.8098C25.3658 89.4459 25.2605 89.2168 25.2229 88.8809C25.1568 88.2896 25.3149 87.6957 25.3567 87.1004C25.4032 86.4345 25.4183 85.7697 25.3728 85.117C25.3349 84.5715 25.5129 83.9117 25.6293 83.3508C25.7556 82.7415 26.0338 82.3579 26.0011 81.7117C25.9618 80.935 25.284 80.5951 24.9762 81.4834C24.8826 81.7504 24.8861 82.1332 24.827 82.4192C24.7706 82.6929 24.6926 82.9349 24.6724 83.2212C24.6275 83.8476 24.5546 84.5067 24.5999 85.1083C24.6698 86.0365 24.408 87.006 24.1674 87.9081C23.9922 88.566 24.1076 89.1186 24.0226 89.767C23.9492 90.3239 23.7873 90.6346 23.8534 91.1805C23.9076 91.6271 23.4408 93.7419 24.545 93.3843C25.0133 93.2324 25.0264 92.3029 25.1469 91.9196C25.2074 91.7263 25.3688 91.5034 25.3742 91.3011Z" fill="#75645D"/>
<path d="M29.0097 91.6953C28.9784 91.3783 28.8483 91.2748 28.8824 90.9456C28.9166 90.6196 29.0745 90.4033 29.0633 90.0387C29.0551 89.7728 28.9532 89.5347 28.9422 89.2764C29.0305 88.6106 29.1508 87.9603 29.1868 87.2886C29.206 86.9358 29.2491 86.565 29.2412 86.2119C29.2337 85.8783 29.1146 85.5864 29.1655 85.2563C29.2387 84.7786 29.3321 84.2293 29.4551 83.7529C29.6056 83.1693 29.8726 82.7095 29.7219 82.0726C29.5502 81.3477 28.8719 81.4399 28.69 82.1214C28.615 82.4028 28.6304 82.7576 28.5809 83.0503C28.5351 83.3212 28.463 83.5637 28.452 83.8461C28.4405 84.1436 28.5067 84.449 28.4775 84.7435C28.4525 84.9975 28.3259 85.1924 28.3361 85.4553C28.3563 85.9761 28.4518 86.1435 28.3583 86.6881C28.2362 87.3961 28.0652 88.0711 27.8818 88.7619C27.7419 89.2894 27.8396 89.7617 27.745 90.2899C27.6474 90.8325 27.4671 91.127 27.5023 91.6653C27.5283 92.0627 27.3701 92.3181 27.3314 92.7128C27.2734 93.3124 27.6793 94.3733 28.3072 93.621C28.5882 93.2847 28.6146 92.7869 28.7696 92.3903C28.8663 92.1431 29.0371 91.976 29.0097 91.6953Z" fill="#75645D"/>
<path d="M32.4332 88.6856C32.0953 89.0183 32.1215 89.319 31.9152 89.695C31.8311 89.8124 31.7244 89.9035 31.5952 89.9677C31.5018 90.054 31.4953 90.1427 31.5765 90.2334C31.5543 90.271 31.3026 90.6354 31.2923 90.6715C31.1634 90.9681 31.2535 91.0943 31.5235 91.1898C31.9208 91.3301 32.3478 90.8948 32.5767 90.6437C32.8025 90.3957 33.0555 90.119 32.984 89.7583C32.9053 89.359 32.3835 89.135 32.4332 88.6856Z" fill="#75645D"/>
<path d="M33.6467 87.694C33.6971 87.528 33.7836 87.2524 33.8824 87.0825C33.9592 86.9508 34.2267 86.7096 34.2549 86.588C34.353 86.1855 33.8513 85.5946 33.4288 85.7993C33.1476 85.9356 33.0728 86.4482 32.9949 86.7341C32.8166 87.3884 33.0283 87.7433 32.6401 88.3767C32.8933 88.2116 33.3697 88.2777 33.5776 88.1076C33.8317 87.8993 33.5586 87.9862 33.6467 87.694Z" fill="#75645D"/>
<path d="M37.6282 88.5193C37.6097 88.4742 37.5905 88.4289 37.5719 88.3836C37.6048 88.2592 37.684 88.1729 37.8094 88.1244C37.8856 87.9741 37.9549 87.9642 38.0067 87.7702C38.0958 87.4373 38.0532 87.2506 38.2284 86.9155C38.4008 86.5852 38.611 86.195 38.6605 85.8115C38.6724 85.7166 38.6566 85.5322 38.6773 85.457C38.7313 85.2601 38.8168 85.1886 38.8978 84.9937C38.9583 84.8486 38.9646 84.7046 39.0359 84.5649C39.126 84.3876 39.397 84.2107 39.4521 84.0394C39.5761 83.6668 39.4014 83.1984 39.0064 83.1149C38.487 83.0051 38.5202 83.3568 38.3798 83.7112C38.2169 84.124 38.1756 84.3019 38.0897 84.7238C38.0572 84.883 37.9671 85.0929 37.9336 85.2483C37.9192 85.3155 37.9577 85.3868 37.9407 85.4601C37.9014 85.6302 37.7288 85.8632 37.6445 86.0054C37.4946 86.2586 37.3411 86.431 37.1615 86.6585C36.9363 86.9447 36.9648 87.039 36.8287 87.3201C36.6589 87.6706 36.369 87.8449 36.1717 88.1584C36.1389 88.21 36.2027 88.4393 36.1457 88.5533C36.0892 88.6665 35.9044 88.6823 35.8559 88.8249C35.7388 89.1686 35.9913 89.5882 36.2945 89.6197C36.6979 89.6618 36.9977 89.226 37.2698 89.0055C37.5843 88.7507 37.5001 88.7789 37.6282 88.5193Z" fill="#75645D"/>
<path d="M41.8097 88.9533C41.8139 88.9323 41.8889 88.8717 41.9048 88.8396C42.022 88.6001 41.9672 88.4288 42.0379 88.1699C42.1048 87.9234 42.2215 87.7392 42.2589 87.4488C42.3037 87.0986 42.176 87.2228 42.3224 86.8388C42.371 86.7111 42.6291 86.3359 42.6343 86.2825C42.6691 85.9855 42.3189 85.7677 42.0924 85.7124C41.5622 85.5834 41.675 85.7566 41.5657 86.052C41.4809 86.2812 41.4704 86.388 41.4367 86.6043C41.4195 86.7141 41.3653 86.8954 41.3606 87.0158C41.3581 87.0803 41.5169 87.1557 41.4973 87.2334C41.4517 87.4155 41.3134 87.618 41.2079 87.7667C41.139 87.8638 41.0028 87.9694 40.947 88.055C40.8543 88.196 40.7807 88.4022 40.7246 88.4919C40.6036 88.6856 40.3892 88.7862 40.2656 88.9504C40.1629 89.0868 40.3264 89.1764 40.2902 89.2247C40.2266 89.308 39.9873 89.3935 39.9679 89.483C39.7742 90.3835 40.9977 89.8053 41.3534 89.5655C41.6266 89.381 41.6059 89.3166 41.6831 89.2111C41.5626 89.3757 41.8597 88.693 41.8097 88.9533Z" fill="#75645D"/>
<path d="M51.0858 90.7262C51.1654 90.5075 50.9905 90.3802 51.0354 90.1815C51.1311 89.7571 51.4875 89.4857 51.5284 89.0002C51.5517 88.7267 51.4955 88.5259 51.5436 88.2487C51.5947 87.9565 51.743 87.6892 51.8042 87.4009C51.8897 86.8593 52.0348 86.2422 51.9991 85.6925C51.982 85.4266 51.8951 85.2232 51.9101 84.9539C51.9234 84.7192 52.0264 84.4057 52.0553 84.1568C52.1009 83.7624 52.7021 81.2141 51.4906 81.739C51.0426 81.9332 51.1834 82.8564 51.1356 83.226C51.0722 83.7147 51.1734 84.2275 51.1601 84.71C51.1355 85.6113 51.1671 86.2887 50.7985 87.2185C50.5939 87.735 50.4176 88.1826 50.2903 88.7022C50.1513 89.2684 49.7972 89.6988 49.6627 90.2155C49.5727 90.5612 48.5229 92.2462 49.7396 92.0893C50.1787 92.0328 50.4304 91.4621 50.6864 91.1627C50.8009 91.0286 51.0242 90.8938 51.0858 90.7262Z" fill="#75645D"/>
<path d="M56.0062 96.2293C56.0749 96.0594 56.2272 95.8867 56.2594 95.7062C56.3124 95.4098 56.1365 95.253 56.1172 94.9775C56.0915 94.597 56.3273 94.2136 56.3493 93.8163C56.3775 93.3002 56.2181 92.8488 56.2634 92.3328C56.3206 91.6854 56.3792 91.0673 56.3622 90.4147C56.3537 90.0769 56.3675 89.7213 56.3302 89.3854C56.2951 89.0719 56.1527 88.7772 56.1426 88.4686C56.1255 87.9338 56.193 87.3131 56.2208 86.7657C56.2461 86.2696 56.45 85.7936 56.3105 85.3056C56.2045 84.9431 56.0954 84.01 55.476 84.357C54.9893 84.6301 55.2901 85.358 55.2857 85.7707C55.2803 86.2042 55.2058 86.5956 55.2606 87.0382C55.3275 87.5804 55.2735 88.1377 55.3489 88.663C55.3854 88.9119 55.5178 89.1224 55.5328 89.3789C55.5659 89.9333 55.4536 90.5476 55.3772 91.0952C55.3018 91.6351 55.0997 92.1667 55.0553 92.7094C55.017 93.1754 55.1263 93.6029 55.0126 94.0779C54.9309 94.4182 54.6938 94.7287 54.7036 95.0829C54.7094 95.2969 54.8542 95.4673 54.8257 95.6914C54.7994 95.8971 54.6279 96.0818 54.5833 96.2882C54.3719 97.271 55.0869 98.3494 55.6979 97.0821C55.8303 96.8066 55.8929 96.5095 56.0062 96.2293Z" fill="#75645D"/>
<path d="M59.9133 94.1042C59.9953 93.6411 60.1242 93.253 60.0559 92.7642C59.8791 91.4971 60.0576 90.1997 59.9086 88.903C59.8703 88.5702 59.7136 88.2842 59.6708 87.9663C59.6304 87.6665 59.7477 87.3567 59.7395 87.0552C59.7247 86.4785 59.5951 85.9299 59.7226 85.3516C59.8107 84.9568 59.6956 84.4274 59.5223 84.067C59.216 83.4303 58.6149 83.5439 58.5492 84.2602C58.5128 84.6584 58.6483 85.1092 58.6457 85.5211C58.6419 86.0463 58.7811 86.5138 58.8611 87.0252C58.9029 87.2903 58.8433 87.5303 58.8636 87.7899C58.8874 88.0891 59.0411 88.3041 59.0955 88.5893C59.1369 88.8059 59.0997 89.0596 59.0927 89.2737C59.0537 90.4552 58.7241 91.6351 58.8019 92.7925C58.8274 93.1653 58.7653 93.5838 58.6525 93.9386C58.5966 94.1146 58.464 94.2653 58.4464 94.4569C58.4236 94.7036 58.6004 94.9165 58.5889 95.1586C58.5691 95.5712 57.8313 97.4995 58.9528 97.2995C59.4253 97.2154 59.8819 95.7601 59.9954 95.289C60.0984 94.8631 59.8371 94.536 59.9133 94.1042Z" fill="#75645D"/>
<path d="M65.0381 95.0057C65.0263 94.7109 64.8567 94.5103 64.8929 94.203C64.9616 93.6167 65.155 93.1474 65.0382 92.5291C64.9102 91.8501 64.9648 91.2289 64.952 90.5351C64.9382 89.7984 64.7931 89.054 64.6913 88.3266C64.6448 88.0092 64.4594 87.7822 64.3846 87.4817C64.3061 87.1659 64.3938 86.8142 64.3498 86.4929C64.2755 85.9534 64.1034 85.4378 64.0862 84.8853C64.0686 84.3215 64.0109 83.9583 63.7395 83.4386C63.5277 83.0331 63.0669 82.586 62.7779 83.2337C62.5832 83.67 62.941 84.1628 63.0272 84.5709C63.1316 85.0661 63.1322 85.5573 63.286 86.0534C63.466 86.6323 63.4842 87.2459 63.6849 87.7991C63.7787 88.0582 63.8621 88.2252 63.9046 88.4859C64.1231 89.8307 63.6867 91.1382 63.755 92.4581C63.7788 92.914 63.8271 93.3476 63.6944 93.8015C63.64 93.9864 63.5071 94.1489 63.4758 94.3397C63.4307 94.6166 63.591 94.8277 63.5863 95.0922C63.5765 95.6615 62.7824 96.8903 63.5674 97.3697C64.27 97.799 64.6245 96.1738 64.8135 95.714C64.9174 95.4616 65.0496 95.2894 65.0381 95.0057Z" fill="#75645D"/>
<path d="M68.7033 89.6157C68.7649 89.5748 68.8266 89.5336 68.8885 89.493C68.8883 89.5662 68.8878 89.6397 68.8878 89.7135C68.8263 89.6805 68.765 89.6481 68.7033 89.6157ZM69.0695 96.2633C69.0868 95.9796 69.2925 95.8014 69.378 95.5402C69.5409 95.0432 69.4152 94.652 69.4136 94.1647C69.4105 93.4554 69.6602 92.7528 69.659 92.0295C69.6567 90.6509 69.3035 89.3767 69.3488 87.9938C69.3678 87.404 69.4313 86.9243 69.0935 86.3838C68.5701 85.5469 67.9412 86.3609 68.2189 87.0811C68.4206 87.6164 68.3113 88.212 68.4515 88.7756C68.5326 89.102 68.6113 89.3533 68.6227 89.6901C68.6363 90.0834 68.7532 90.312 68.8207 90.6868C69.012 91.7451 68.497 92.8612 68.2906 93.868C68.1829 94.3933 68.2747 94.9275 68.035 95.4382C67.9648 95.5878 67.7998 95.7186 67.7445 95.8696C67.6443 96.1406 67.7814 96.3475 67.7209 96.6013C67.6058 97.084 67.2498 97.2956 67.223 97.8332C67.1804 98.6923 67.7286 98.8393 68.2481 98.2498C68.477 97.9896 68.9095 97.3813 69.0662 97.0424C69.2143 96.722 69.0501 96.5828 69.0695 96.2633Z" fill="#75645D"/>
<path d="M98.5853 75.2562C98.0119 75.1378 97.4661 74.9564 96.8765 74.8685C95.8231 74.7185 94.8667 74.7153 93.8339 74.4103C93.1238 74.2006 92.4575 73.8578 91.7519 73.6558C91.2133 73.5013 90.6502 73.564 90.1207 73.3182C89.9076 73.2193 89.7365 73.0126 89.5045 72.9562C89.1894 72.8795 88.9563 73.0477 88.6308 72.9382C88.1933 72.7909 88.0426 72.5819 87.5253 72.609C86.628 72.6556 86.5258 73.2198 87.2149 73.6846C87.5271 73.8952 88.1398 74.2524 88.5079 74.3965C88.8312 74.5234 88.9697 74.3555 89.2857 74.3662C89.5681 74.3761 89.7491 74.5825 90.0071 74.6708C90.5527 74.8574 91.0986 74.7337 91.6417 74.8317C92.2443 74.9404 92.8146 75.1584 93.4226 75.2604C93.7921 75.3221 94.1774 75.4095 94.5504 75.4423C94.9003 75.4728 95.222 75.3868 95.5629 75.4731C96.1163 75.6132 96.7812 75.7614 97.3198 75.9805C97.8533 76.1978 98.2611 76.4338 98.8733 76.3451C99.9409 76.1906 99.2663 75.3968 98.5853 75.2562Z" fill="#75645D"/>
<path d="M102.712 69.3107C102.366 69.094 101.879 69.0653 101.493 68.923C100.959 68.7265 100.474 68.68 99.9184 68.5991C99.6585 68.5618 99.4406 68.4356 99.1909 68.3861C98.897 68.3279 98.6581 68.4236 98.3685 68.4079C98.1518 68.3959 97.9165 68.3022 97.7119 68.2481C96.5325 67.9381 95.4027 67.4672 94.2031 67.3872C93.8133 67.3607 93.4344 67.2425 93.0771 67.0996C92.5674 66.8957 92.286 67.0839 91.7894 67.0083C91.3106 66.9353 89.9963 66.3717 89.7481 67.2215C89.5584 67.8709 91.0911 68.1663 91.5451 68.3339C91.7533 68.4106 91.863 68.5137 92.0959 68.5031C92.3166 68.4932 92.4897 68.3127 92.7244 68.3378C93.1902 68.3869 93.586 68.6689 94.0905 68.6603C94.6401 68.6511 95.0467 68.6078 95.6071 68.7408C96.1805 68.8765 96.7473 68.9625 97.3322 69.0459C98 69.1407 98.6672 69.0896 99.281 69.3109C99.7888 69.4942 100.338 69.5372 100.836 69.7628C101.353 69.9966 101.679 70.215 102.279 70.2116C102.846 70.2079 103.398 69.7439 102.712 69.3107Z" fill="#75645D"/>
<path d="M101.504 65.5648C101.223 65.3745 100.802 65.3392 100.486 65.2324C100.248 65.1524 100.042 65.0485 99.7869 64.9979C99.5176 64.945 99.2366 64.9582 98.9717 64.8936C98.7515 64.8398 98.5901 64.6754 98.3549 64.6442C97.8609 64.5783 97.7373 64.6586 97.2414 64.4618C96.7115 64.251 96.2255 64.0129 95.7298 63.7377C95.1587 63.421 94.5589 63.4079 94.0077 63.0919C93.8435 62.9984 93.645 62.7724 93.5005 62.6995C93.2458 62.5722 93.0723 62.7023 92.8259 62.6325C92.4382 62.5234 92.2625 62.1904 91.8333 62.1352C91.1991 62.0541 90.6818 62.3669 91.1365 62.9839C91.3685 63.2987 91.7618 63.4488 92.06 63.6837C92.2658 63.8459 92.3578 64.0177 92.6194 64.0834C92.8764 64.1478 93.0436 64.0284 93.3175 64.1308C93.7943 64.3101 94.1035 64.4792 94.6222 64.5471C95.1924 64.6223 95.7186 64.9383 96.2754 65.1001C96.8397 65.2647 97.3986 65.3643 97.9632 65.4422C98.4707 65.5118 99.021 65.7523 99.5294 65.9358C99.9679 66.0942 100.276 66.3829 100.739 66.4502C100.999 66.4881 101.403 66.5568 101.614 66.3517C101.87 66.1025 101.768 65.7456 101.504 65.5648Z" fill="#75645D"/>
<path d="M96.3754 49.7404C95.5781 49.7184 94.8487 49.8905 94.1169 50.0726C93.4629 50.2356 92.616 50.0162 91.9648 49.9436C91.4745 49.8895 91.1263 50.1173 90.6386 50.0768C90.3548 50.0536 90.1257 49.9217 89.8366 49.9605C89.632 49.9875 89.5044 50.1417 89.255 50.1577C88.9252 50.1787 88.7865 50.0509 88.4578 50.2412C87.7765 50.6363 88.1248 51.1337 88.7024 51.3175C88.9576 51.3987 89.3711 51.471 89.6532 51.4941C89.8945 51.514 89.8426 51.5956 90.0741 51.5476C90.4373 51.472 90.2749 51.1999 90.768 51.3492C91.2571 51.4729 91.6901 51.1092 92.1351 51.0538C92.7912 50.9724 93.4722 51.0692 94.1232 50.8736C94.5968 50.7313 94.8246 50.7107 95.3316 50.7301C95.6867 50.744 96.0102 50.7752 96.3661 50.8163C96.7655 50.863 97.5391 50.858 97.5729 50.2703C97.6138 49.5686 96.786 49.7518 96.3754 49.7404Z" fill="#75645D"/>
<path d="M101.174 45.1851C100.851 45.101 100.556 45.23 100.234 45.2283C99.9893 45.2269 99.7543 45.1583 99.5016 45.165C98.9946 45.1784 98.5165 45.2313 98.0182 45.2365C97.5855 45.2409 97.2938 45.4216 96.8513 45.3768C96.2709 45.3178 95.692 45.2246 95.1302 45.07C94.564 44.914 94.127 44.8661 93.5665 44.8245C93.0377 44.7857 92.6778 44.403 92.1917 44.3483C91.9544 44.3216 91.8122 44.4543 91.5581 44.3908C91.3728 44.3443 91.2178 44.1841 91.0164 44.1393C90.5021 44.0253 89.567 44.2195 89.9867 44.8985C90.2316 45.2942 90.9144 45.5331 91.3338 45.7261C91.8169 45.9485 92.0493 45.7665 92.5405 45.8535C92.86 45.9101 93.0403 46.081 93.4054 46.0846C93.6667 46.0872 93.8918 45.9919 94.1462 45.9848C94.686 45.9709 95.2445 46.1773 95.7887 46.2026C96.409 46.2319 97.005 46.2143 97.6007 46.1143C98.1315 46.0261 98.7663 46.1265 99.3292 46.1521C99.8195 46.1746 100.224 46.3549 100.71 46.2712C100.973 46.2254 101.411 46.163 101.548 45.8934C101.716 45.5647 101.485 45.2679 101.174 45.1851Z" fill="#75645D"/>
<path d="M104.199 40.573C104.126 40.8288 103.426 41.3322 103.27 40.8972C103.146 40.5515 103.217 40.5192 102.771 40.4815C102.512 40.4598 102.232 40.4815 101.974 40.5108C101.432 40.5721 100.914 40.5515 100.394 40.635C99.5157 40.7763 98.5895 40.5219 97.7389 40.263C97.1908 40.0966 96.7308 40.1097 96.1892 40.033C95.8543 39.9854 95.6961 39.8615 95.4098 39.7408C95.0915 39.6069 95.0636 39.6814 94.743 39.6451C94.3517 39.601 94.0366 39.3915 93.6274 39.3406C93.0594 39.269 92.2683 39.561 92.816 40.2101C93.0968 40.5428 93.6936 40.7569 94.0911 40.9499C94.5545 41.1744 94.8416 41.0037 95.314 41.0916C95.6361 41.1517 95.8199 41.3249 96.1878 41.333C96.4256 41.338 96.6185 41.2721 96.849 41.2582C97.422 41.2229 98.0248 41.4457 98.6041 41.4793C99.2274 41.5156 99.8398 41.5042 100.443 41.4125C100.924 41.3396 101.481 41.4402 101.991 41.4529C102.437 41.464 102.856 41.6614 103.287 41.6691C103.729 41.677 105.235 41.0199 104.199 40.573Z" fill="#75645D"/>
<path d="M53.9323 25.0184C53.5938 24.6782 53.14 24.5231 52.7853 24.2047C52.3128 23.7803 51.8311 23.3995 51.3301 23.0079C51.0295 22.773 50.8602 22.5316 50.601 22.254C50.3662 22.0023 50.0644 21.8915 49.8176 21.6643C49.5847 21.4502 49.4084 21.1356 49.2353 20.8771C48.5038 19.785 48.163 18.5584 47.5473 17.4258C47.3161 16.9999 47.1376 16.5519 47.076 16.0634C47.045 15.8159 47.1127 15.6032 47.026 15.3556C46.9351 15.096 46.6992 14.9288 46.6388 14.6507C46.5273 14.134 46.7499 12.411 45.8169 12.4217C45.1729 12.4297 45.2059 14.4665 45.2595 14.9836C45.3159 15.5318 45.7283 15.9063 45.8283 16.4631C45.9385 17.0779 46.1555 17.5715 46.5068 18.0838C47.2607 19.1835 47.7442 20.4008 48.6044 21.4539C48.9121 21.8314 49.1904 22.1264 49.5658 22.4235C49.9327 22.7141 50.1004 23.0331 50.4104 23.3798C50.8812 23.9062 51.4771 24.3296 51.9575 24.855C52.3637 25.2989 52.8095 25.6177 53.3892 25.8211C54.053 26.0542 54.4858 25.5798 53.9323 25.0184Z" fill="#75645D"/>
<path d="M56.1183 22.3437C55.7587 21.9058 55.423 21.5008 55.0278 21.0847C54.8011 20.8456 54.7099 20.5317 54.4811 20.2978C54.3419 20.1554 54.1349 20.0901 53.996 19.9383C53.6613 19.5732 53.4413 18.9803 53.2303 18.5384C52.9407 17.9314 52.8157 17.2617 52.4848 16.6823C52.2201 16.2184 52.0928 15.8959 51.9955 15.3678C51.9266 14.9933 51.6902 14.8957 51.5774 14.5954C51.48 14.3361 51.5433 14.0808 51.4744 13.8189C51.3856 13.4795 51.0642 12.8903 50.6662 12.8637C49.9973 12.8195 50.0695 14.923 50.3444 15.3725C50.5088 15.6415 50.687 15.7069 50.8115 16.0087C50.9096 16.2468 50.9063 16.5052 51.0294 16.7556C51.3086 17.3224 51.7348 17.7312 52.0116 18.3221C52.3154 18.9689 52.7148 19.5337 53.1399 20.1082C53.3639 20.4108 53.6508 20.5514 53.8831 20.8177C54.095 21.0604 54.1695 21.4014 54.3687 21.661C54.7343 22.1386 55.9507 24.4361 56.7345 23.7405C57.2815 23.2553 56.375 22.6562 56.1183 22.3437Z" fill="#75645D"/>
<path d="M59.4867 18.2843C59.0209 17.6566 58.5866 17.2026 58.2486 16.4651C58.0355 15.9995 57.9459 15.4607 57.713 15.012C57.4169 14.4419 57.1316 14.2202 57.0104 13.5169C56.9703 13.233 56.6715 13.2296 56.5428 13.0286C56.4424 12.8719 56.4854 12.6594 56.4015 12.4888C56.2852 12.2533 55.9711 11.9562 55.7039 11.9483C54.9285 11.9254 55.2285 13.3509 55.4311 13.8323C55.5173 14.0375 55.5913 14.0535 55.7029 14.2183C55.837 14.4162 55.8942 14.4284 56.0124 14.7167C56.1813 15.128 56.4391 15.2789 56.7161 15.5846C57.0676 15.9723 57.3155 16.7199 57.6191 17.1643C57.8721 17.5351 58.2067 17.7965 58.4433 18.1347C58.8657 18.7395 58.9362 20.3252 59.8195 20.4727C61.1471 20.695 59.7025 18.5747 59.4867 18.2843Z" fill="#75645D"/>
<path d="M69.8015 18.2717C69.6634 18.0065 69.4198 17.7557 69.2598 17.4982C69.1141 17.2628 69.005 17.0298 68.8289 16.8072C68.437 16.3122 68.067 15.7788 67.6412 15.3452C66.9172 14.6086 66.5262 13.5621 66.1196 12.614C65.8816 12.0585 65.4324 11.7106 65.2068 11.1518C65.1227 10.943 65.1185 10.6769 65.0262 10.4818C64.8695 10.1529 64.4771 10.0676 64.39 9.71853C64.1794 8.82822 62.6346 7.6635 62.909 9.27389C62.9734 9.65191 63.1218 10.0629 63.2427 10.4277C63.3665 10.7995 63.3691 10.7666 63.6185 11.0528C63.864 11.334 63.8683 11.3496 64.0374 11.7017C64.3157 12.2806 64.7576 12.5983 65.1052 13.0992C65.4992 13.6673 65.7987 14.2815 66.21 14.8454C66.928 15.8293 67.7905 16.6504 68.273 17.8086C68.4606 18.2606 68.7042 18.9509 69.2316 19.1328C69.852 19.3469 70.065 18.7791 69.8015 18.2717Z" fill="#75645D"/>
<path d="M72.7819 16.3188C72.6408 15.8021 72.5763 15.4021 72.3371 14.9141C72.2134 14.6622 72.1473 14.3572 72.0265 14.12C71.9011 13.8732 71.7129 13.7465 71.5683 13.5185C71.0572 12.7117 71.0458 11.6164 70.6775 10.7503C70.4563 10.2309 70.1083 9.83879 69.9196 9.2782C69.8424 9.04769 69.8925 8.90724 69.7422 8.66845C69.6234 8.58756 69.5056 8.50615 69.3873 8.42437C69.3001 8.29255 69.2527 8.14733 69.2453 7.98996C69.1016 7.6338 68.9474 7.30689 68.5696 7.11251C67.5669 6.59721 67.8291 7.90608 68.0143 8.4383C68.1323 8.75728 68.1155 9.14268 68.3128 9.41178C68.4434 9.5896 68.6721 9.58132 68.791 9.80443C68.9533 10.1081 68.9075 10.3765 69.1287 10.6854C69.4318 11.108 69.7122 11.3898 69.9209 11.8889C70.1559 12.4509 70.4089 12.9991 70.7022 13.5366C70.8183 13.7485 70.9495 13.9046 71.0682 14.1011C71.2487 14.3997 71.2348 14.5558 71.3359 14.8915C71.4648 15.3187 71.6722 15.684 71.7215 16.1396C71.7677 16.5659 71.8703 17.4391 72.4147 17.5623C73.2873 17.7591 72.8819 16.6861 72.7819 16.3188Z" fill="#75645D"/>
<path d="M76.9309 16.6983C76.9421 16.1878 76.8557 15.7421 76.8144 15.2383C76.7866 14.9041 76.8302 14.7365 76.7382 14.4082C76.703 14.2813 76.6577 14.227 76.6331 14.1148C76.4294 13.1917 76.8034 12.0895 76.4718 11.1895C76.3143 10.7613 76.0499 10.419 75.9415 9.94693C75.8841 9.69862 75.9067 9.55234 75.7628 9.33241C75.6244 9.12111 75.378 9.02348 75.2292 8.77552C75.0206 8.42853 74.9617 8.20912 74.5631 8.00593C73.8686 7.65241 73.5249 7.97595 73.7399 8.6703C73.8462 9.0143 74.0816 9.32801 74.2155 9.6632C74.3942 10.1087 74.6247 10.2155 74.8298 10.6066C75.3651 11.629 75.6069 12.6723 75.7979 13.8506C75.8825 14.373 76.02 14.6803 75.9857 15.1968C75.9523 15.6942 76.0658 16.1839 75.8635 16.6685C75.7 17.0594 75.8533 18.0497 76.4012 18.0719C77.1019 18.1011 76.9213 17.126 76.9309 16.6983Z" fill="#75645D"/>
<path d="M26.704 54.7044C25.983 55.0329 25.1684 55.0893 24.4034 55.2863C23.7 55.4675 23.0821 55.657 22.3544 55.7075C21.8441 55.7428 21.4124 55.9595 20.9142 56.0258C20.3635 56.0991 19.7583 56.0352 19.2082 55.995C18.5082 55.9439 17.8185 55.8515 17.1442 55.6557C16.2964 55.4099 15.3782 55.2414 14.5599 54.9436C13.8608 54.6893 13.4868 54.1639 12.8742 53.8229C12.656 53.7013 12.3725 53.6967 12.1663 53.5561C11.8551 53.3446 11.7164 52.9846 11.4779 52.7044C11.2476 52.4339 10.4272 51.4315 10.0111 51.5587C9.40163 51.7445 9.91313 52.7393 10.1074 53.1016C10.3428 53.5422 10.693 54.1035 11.022 54.4808C11.281 54.7779 11.567 54.8623 11.9222 54.988C12.3522 55.1402 12.5804 55.3695 12.9506 55.6228C13.5905 56.0602 14.3324 56.2369 15.0821 56.3249C15.8333 56.413 16.5608 56.6691 17.3092 56.7947C18.7925 57.0444 20.334 56.9251 21.7773 56.5973C22.4815 56.4375 23.2043 56.5136 23.9211 56.3605C24.7753 56.1784 25.7172 56.1978 26.5478 55.9567C26.9409 55.8427 28.1841 55.4064 28.3392 54.9653C28.6527 54.0746 27.0649 54.536 26.704 54.7044Z" fill="#75645D"/>
<path d="M27.7981 52.4162C27.3253 52.4964 26.8715 52.4516 26.3915 52.4879C25.7855 52.5334 25.2466 52.6375 24.6433 52.579C24.214 52.5367 23.8317 52.6691 23.4099 52.6499C22.2869 52.5977 21.1532 52.0477 20.1644 51.562C19.6597 51.3142 19.1389 51.2561 18.6467 50.9838C18.2478 50.763 17.9919 50.3536 17.5822 50.1818C17.3708 50.0929 17.1466 50.1418 16.9406 50.0152C16.7581 49.9033 16.65 49.6471 16.4844 49.5117C16.2389 49.3112 15.8967 49.1311 15.5924 49.0558C14.0383 48.6702 15.4611 50.3691 15.8097 50.7497C16.1637 51.1359 16.2917 51.3673 16.8117 51.4996C17.3477 51.6362 17.6487 51.9596 18.15 52.1991C18.6734 52.4493 19.2117 52.4535 19.7494 52.6349C20.4317 52.8645 21.0698 53.1192 21.7831 53.2454C22.5632 53.3839 23.2737 53.4285 24.0514 53.3641C24.6898 53.3113 25.397 53.4776 26.0596 53.4764C26.5665 53.4752 29.2976 53.8292 29.1252 52.7218C29.0327 52.1316 28.1694 52.3536 27.7981 52.4162Z" fill="#75645D"/>
<path d="M28.3241 44.8034C27.956 44.6881 27.5878 44.7848 27.2134 44.7397C26.8468 44.696 26.5069 44.5806 26.1279 44.566C25.6983 44.5496 25.2964 44.5802 24.8752 44.5015C24.4502 44.4223 24.1071 44.4937 23.6896 44.4549C23.0181 44.3926 22.2441 44.0775 21.6289 43.8191C21.1887 43.6341 20.7794 43.3523 20.3284 43.1937C19.929 43.0528 19.5602 43.0373 19.1636 42.8551C19.2853 43.1279 19.3925 43.4154 19.4631 43.7065C19.5016 43.8529 19.5282 44.0013 19.5425 44.1525C19.5126 44.3219 19.5862 44.3702 19.763 44.2972C20.0946 44.4863 20.7127 44.5966 21.092 44.7219C21.6649 44.9117 22.2568 45.0138 22.8502 45.1169C23.3786 45.2087 23.8915 45.1244 24.3945 45.2023C25.258 45.3357 26.1454 45.5892 27.0023 45.7895C27.3828 45.8785 27.8618 45.8842 28.2444 45.7714C28.7993 45.608 29.0273 45.0273 28.3241 44.8034Z" fill="#75645D"/>
<path d="M15.402 41.7392C15.3078 42.2255 16.1891 42.8001 16.5284 43.0247C16.5452 42.8763 16.9154 41.649 16.9276 41.6541C16.5443 41.4893 15.5258 41.1006 15.402 41.7392Z" fill="#75645D"/>
<path d="M32.6599 39.5406C32.2685 39.3548 31.731 39.2748 31.3099 39.1169C30.8029 38.9261 30.2699 38.9218 29.7556 38.7897C29.4921 38.722 29.2662 38.5583 29.003 38.495C28.755 38.4351 28.5051 38.4969 28.2558 38.4497C27.9971 38.4011 27.7322 38.25 27.4944 38.1489C26.3754 37.671 25.3743 36.997 24.2432 36.6019C23.777 36.4391 23.4629 36.148 23.0849 35.8602C22.7031 35.5696 22.2743 35.6318 21.8821 35.3618C21.5011 35.0994 21.2122 34.8433 20.7147 34.7929C19.898 34.7108 19.7594 35.2471 20.3128 35.7795C20.5891 36.0207 20.8922 36.2375 21.163 36.4814C21.3134 36.6167 21.4323 36.8365 21.6165 36.928C21.8763 37.0571 22.1502 36.9461 22.4111 37.0348C22.7951 37.1653 23.0905 37.5296 23.4976 37.6785C24.0241 37.8717 24.5326 37.9052 25.0537 38.1429C26.2014 38.6665 27.329 38.9848 28.5446 39.2279C29.5092 39.4214 30.4563 39.9877 31.3754 40.3539C31.7147 40.489 32.4547 40.6482 32.7959 40.5113C33.3971 40.2698 33.093 39.7455 32.6599 39.5406Z" fill="#75645D"/>
<path d="M33.7747 34.9229C32.8007 34.5357 31.7801 34.2453 30.8037 33.8615C29.9624 33.5309 29.1613 33.3858 28.3104 32.9994C27.7637 32.7507 27.2412 32.4902 26.7197 32.1959C26.1654 31.8833 25.6704 31.7627 25.0777 31.58C24.5458 31.4163 24.1917 31.0252 23.7115 30.8086C23.4397 30.6858 23.1827 30.7877 22.9104 30.7159C22.672 30.6527 22.5304 30.4785 22.3198 30.3615C21.9608 30.162 21.5032 30.0424 21.0914 30.0653C20.252 30.1125 20.3179 30.6787 20.9177 31.095C21.2299 31.289 21.5609 31.4698 21.8655 31.673C22.0357 31.786 22.1829 31.9721 22.3678 32.0579C22.6617 32.1952 22.8946 32.062 23.1889 32.12C23.6324 32.2076 24.0194 32.5803 24.4709 32.719C25.0908 32.9098 25.6688 32.9394 26.2806 33.2008C27.4166 33.6856 28.5704 34.0744 29.7705 34.3087C30.2932 34.4106 30.8993 34.7899 31.4147 34.9978C31.9242 35.2036 32.3296 35.5891 32.821 35.8014C33.1793 35.956 34.1157 36.226 34.3887 35.8971C34.7459 35.4675 34.1318 35.0648 33.7747 34.9229Z" fill="#75645D"/>
<path d="M28.7518 27.7518C28.7006 27.7253 28.649 27.6991 28.5976 27.6725C27.7125 27.1802 26.9662 26.817 26.0121 26.5062C25.2584 26.261 24.6082 25.6234 23.8388 25.5166C23.5141 25.4715 23.2619 25.4974 22.951 25.372C22.6768 25.2611 22.447 25.0743 22.1557 24.9901C21.806 24.8889 20.2701 24.5696 20.1818 25.1945C20.1032 25.7505 21.5625 26.2075 21.9006 26.3754C22.4921 26.6701 22.8298 26.8822 23.4921 26.9325C24.3101 26.9943 25.009 27.6062 25.8388 27.7731C26.7625 27.959 27.4618 28.3404 28.3325 28.6921C28.2291 28.6012 28.1242 28.512 28.0179 28.4244C28.2627 28.2005 28.5073 27.9763 28.7518 27.7518Z" fill="#75645D"/>
<path d="M36.5714 31.9401C36.3911 31.6891 36.0207 31.6058 35.7693 31.4549C34.9857 30.9855 34.3548 30.4448 33.4926 30.0796C32.8659 29.8137 32.3848 29.4172 31.7282 29.2344C31.3267 29.1232 31.0245 28.9651 30.6524 28.7651C30.5975 29.0661 30.4802 29.3248 30.2026 29.4801C30.3885 29.5643 30.5748 29.6491 30.7612 29.7335C31.2062 29.9212 31.6873 29.9677 32.0984 30.2227C32.7374 30.62 33.4152 31.0115 34.0316 31.4481C34.431 31.7314 36.5954 33.7091 37.01 32.7754C36.5592 32.7004 36.7508 32.1896 36.5714 31.9401Z" fill="#75645D"/>
</svg>
