<svg width="112" height="42" viewBox="0 0 112 42" fill="none" xmlns="http://www.w3.org/2000/svg">
<path d="M34.0313 34.2244H37.6913L37.4963 35.2744H32.4713L34.3313 24.8194H35.6963L34.0313 34.2244ZM39.1559 31.1344C39.3059 30.2944 39.6059 29.5594 40.0559 28.9294C40.5159 28.2894 41.0709 27.7944 41.7209 27.4444C42.3809 27.0944 43.0809 26.9194 43.8209 26.9194C44.5409 26.9194 45.1359 27.0744 45.6059 27.3844C46.0759 27.6944 46.4009 28.0844 46.5809 28.5544L46.8509 27.0544H48.2309L46.7759 35.2744H45.3959L45.6809 33.7444C45.3209 34.2244 44.8459 34.6244 44.2559 34.9444C43.6659 35.2544 43.0159 35.4094 42.3059 35.4094C41.6659 35.4094 41.1009 35.2744 40.6109 35.0044C40.1209 34.7244 39.7409 34.3294 39.4709 33.8194C39.2009 33.3094 39.0659 32.7194 39.0659 32.0494C39.0659 31.7494 39.0959 31.4444 39.1559 31.1344ZM46.1309 31.1494C46.1709 30.9394 46.1909 30.7144 46.1909 30.4744C46.1909 29.7444 45.9709 29.1694 45.5309 28.7494C45.1009 28.3194 44.5509 28.1044 43.8809 28.1044C43.3709 28.1044 42.8809 28.2244 42.4109 28.4644C41.9509 28.7044 41.5559 29.0544 41.2259 29.5144C40.8959 29.9744 40.6759 30.5144 40.5659 31.1344C40.5259 31.3444 40.5059 31.5744 40.5059 31.8244C40.5059 32.5644 40.7209 33.1494 41.1509 33.5794C41.5809 33.9994 42.1309 34.2094 42.8009 34.2094C43.3109 34.2094 43.7959 34.0894 44.2559 33.8494C44.7259 33.5994 45.1259 33.2444 45.4559 32.7844C45.7959 32.3144 46.0209 31.7694 46.1309 31.1494ZM51.6326 28.5844C52.0026 28.0944 52.4826 27.6944 53.0726 27.3844C53.6626 27.0744 54.3026 26.9194 54.9926 26.9194C55.9726 26.9194 56.7576 27.2144 57.3476 27.8044C57.9476 28.3944 58.2476 29.1944 58.2476 30.2044C58.2476 30.4944 58.2176 30.8044 58.1576 31.1344C58.0076 31.9644 57.7026 32.7044 57.2426 33.3544C56.7926 34.0044 56.2376 34.5094 55.5776 34.8694C54.9276 35.2294 54.2376 35.4094 53.5076 35.4094C52.7976 35.4094 52.2026 35.2544 51.7226 34.9444C51.2426 34.6344 50.9076 34.2394 50.7176 33.7594L50.4476 35.2744H49.0826L51.0476 24.1744H52.4126L51.6326 28.5844ZM56.7626 31.1344C56.8026 30.9244 56.8226 30.6944 56.8226 30.4444C56.8226 29.7144 56.6076 29.1444 56.1776 28.7344C55.7476 28.3144 55.1926 28.1044 54.5126 28.1044C54.0126 28.1044 53.5276 28.2294 53.0576 28.4794C52.5876 28.7194 52.1826 29.0744 51.8426 29.5444C51.5126 30.0044 51.2926 30.5394 51.1826 31.1494C51.1426 31.3594 51.1226 31.5894 51.1226 31.8394C51.1226 32.5694 51.3376 33.1494 51.7676 33.5794C52.2076 33.9994 52.7626 34.2094 53.4326 34.2094C53.9426 34.2094 54.4276 34.0894 54.8876 33.8494C55.3576 33.5994 55.7576 33.2444 56.0876 32.7844C56.4276 32.3144 56.6526 31.7644 56.7626 31.1344ZM62.1143 35.4094C61.2543 35.4094 60.5493 35.2044 59.9993 34.7944C59.4493 34.3844 59.1743 33.8344 59.1743 33.1444C59.1743 33.0144 59.1793 32.9194 59.1893 32.8594H60.5243C60.4843 33.2894 60.6093 33.6394 60.8993 33.9094C61.1993 34.1794 61.6293 34.3144 62.1893 34.3144C62.7493 34.3144 63.1993 34.2094 63.5393 33.9994C63.8893 33.7794 64.0643 33.4744 64.0643 33.0844C64.0643 32.7544 63.9243 32.4944 63.6443 32.3044C63.3643 32.1144 62.9343 31.9094 62.3543 31.6894C61.8443 31.4994 61.4243 31.3194 61.0943 31.1494C60.7643 30.9794 60.4843 30.7444 60.2543 30.4444C60.0243 30.1344 59.9093 29.7444 59.9093 29.2744C59.9093 28.8144 60.0393 28.4044 60.2993 28.0444C60.5693 27.6844 60.9393 27.4094 61.4093 27.2194C61.8893 27.0194 62.4343 26.9194 63.0443 26.9194C63.8843 26.9194 64.5743 27.1294 65.1143 27.5494C65.6543 27.9694 65.9243 28.5194 65.9243 29.1994C65.9243 29.3294 65.9193 29.4294 65.9093 29.4994H64.6043L64.6193 29.3194C64.6193 28.9194 64.4643 28.6044 64.1543 28.3744C63.8543 28.1344 63.4543 28.0144 62.9543 28.0144C62.4643 28.0144 62.0593 28.1244 61.7393 28.3444C61.4293 28.5644 61.2743 28.8594 61.2743 29.2294C61.2743 29.5794 61.4193 29.8544 61.7093 30.0544C61.9993 30.2544 62.4493 30.4744 63.0593 30.7144C63.5693 30.9144 63.9793 31.0994 64.2893 31.2694C64.5993 31.4294 64.8643 31.6544 65.0843 31.9444C65.3043 32.2344 65.4143 32.5994 65.4143 33.0394C65.4143 33.5194 65.2693 33.9394 64.9793 34.2994C64.6993 34.6594 64.3093 34.9344 63.8093 35.1244C63.3093 35.3144 62.7443 35.4094 62.1143 35.4094Z" fill="#454545"/>
<path d="M35.9627 22.216C34.9547 22.216 34.1567 22.006 33.5687 21.586C32.9927 21.166 32.5787 20.578 32.3267 19.822C32.0867 19.054 31.9667 18.172 31.9667 17.176V12.28C31.9667 11.248 32.0987 10.354 32.3627 9.598C32.6267 8.842 33.0767 8.26 33.7127 7.852C34.3607 7.432 35.2367 7.222 36.3407 7.222C37.4207 7.222 38.2667 7.402 38.8787 7.762C39.5027 8.122 39.9467 8.62 40.2107 9.256C40.4747 9.892 40.6067 10.636 40.6067 11.488V12.424H37.4567V11.236C37.4567 10.924 37.4327 10.636 37.3847 10.372C37.3487 10.108 37.2527 9.898 37.0967 9.742C36.9527 9.574 36.7127 9.49 36.3767 9.49C36.0287 9.49 35.7767 9.586 35.6207 9.778C35.4647 9.958 35.3627 10.186 35.3147 10.462C35.2787 10.738 35.2607 11.026 35.2607 11.326V18.076C35.2607 18.4 35.2907 18.706 35.3507 18.994C35.4227 19.27 35.5427 19.498 35.7107 19.678C35.8907 19.846 36.1427 19.93 36.4667 19.93C36.8027 19.93 37.0607 19.84 37.2407 19.66C37.4207 19.48 37.5467 19.246 37.6187 18.958C37.6907 18.67 37.7267 18.364 37.7267 18.04V16.33H36.4127V14.44H40.6247V22H38.5007L38.3207 20.794C38.1287 21.202 37.8467 21.544 37.4747 21.82C37.1027 22.084 36.5987 22.216 35.9627 22.216ZM42.5153 22V11.596H45.4493V13.324C45.7853 12.724 46.1213 12.268 46.4573 11.956C46.7933 11.632 47.2013 11.47 47.6813 11.47C47.7773 11.47 47.8613 11.476 47.9333 11.488C48.0053 11.488 48.0713 11.5 48.1313 11.524V14.44C47.9993 14.38 47.8493 14.332 47.6813 14.296C47.5253 14.248 47.3573 14.224 47.1773 14.224C46.8413 14.224 46.5293 14.314 46.2413 14.494C45.9533 14.674 45.6893 14.92 45.4493 15.232V22H42.5153ZM52.7543 22.18C51.9983 22.18 51.3503 22.048 50.8103 21.784C50.2703 21.508 49.8563 21.112 49.5683 20.596C49.2803 20.068 49.1363 19.438 49.1363 18.706V14.89C49.1363 14.146 49.2803 13.516 49.5683 13C49.8563 12.484 50.2703 12.094 50.8103 11.83C51.3623 11.554 52.0103 11.416 52.7543 11.416C53.5223 11.416 54.1583 11.548 54.6623 11.812C55.1783 12.076 55.5623 12.466 55.8143 12.982C56.0783 13.498 56.2103 14.134 56.2103 14.89V16.978H52.0343V18.976C52.0343 19.24 52.0643 19.456 52.1243 19.624C52.1843 19.792 52.2683 19.912 52.3763 19.984C52.4843 20.056 52.6103 20.092 52.7543 20.092C52.8983 20.092 53.0243 20.062 53.1323 20.002C53.2523 19.93 53.3423 19.822 53.4023 19.678C53.4743 19.534 53.5103 19.336 53.5103 19.084V17.986H56.2103V18.994C56.2103 20.05 55.9043 20.848 55.2923 21.388C54.6803 21.916 53.8343 22.18 52.7543 22.18ZM52.0343 15.61H53.5103V14.566C53.5103 14.29 53.4743 14.074 53.4023 13.918C53.3423 13.762 53.2523 13.654 53.1323 13.594C53.0243 13.534 52.8923 13.504 52.7363 13.504C52.5923 13.504 52.4663 13.54 52.3583 13.612C52.2623 13.684 52.1843 13.81 52.1243 13.99C52.0643 14.158 52.0343 14.404 52.0343 14.728V15.61ZM58.0954 25.024V22.99C58.4674 22.99 58.7734 22.966 59.0134 22.918C59.2654 22.87 59.4514 22.78 59.5714 22.648C59.7034 22.516 59.7694 22.336 59.7694 22.108C59.7694 21.904 59.7334 21.658 59.6614 21.37C59.5894 21.07 59.4994 20.734 59.3914 20.362L56.9434 11.596H59.6974L61.0114 17.608L62.0014 11.596H64.7734L62.3794 22.252C62.2234 22.972 61.9774 23.53 61.6414 23.926C61.3054 24.334 60.8914 24.616 60.3994 24.772C59.9194 24.94 59.3734 25.024 58.7614 25.024H58.0954ZM70.2138 22.216C69.1098 22.216 68.2338 22.018 67.5858 21.622C66.9498 21.214 66.4998 20.65 66.2358 19.93C65.9718 19.198 65.8398 18.34 65.8398 17.356V12.1C65.8398 11.092 65.9718 10.228 66.2358 9.508C66.4998 8.776 66.9498 8.212 67.5858 7.816C68.2338 7.42 69.1098 7.222 70.2138 7.222C71.2938 7.222 72.1338 7.402 72.7338 7.762C73.3458 8.11 73.7778 8.602 74.0298 9.238C74.2818 9.874 74.4078 10.606 74.4078 11.434V12.694H71.2578V11.236C71.2578 10.948 71.2398 10.672 71.2038 10.408C71.1798 10.144 71.0958 9.928 70.9518 9.76C70.8078 9.58 70.5618 9.49 70.2138 9.49C69.8778 9.49 69.6258 9.58 69.4578 9.76C69.3018 9.94 69.1998 10.168 69.1518 10.444C69.1158 10.708 69.0978 10.99 69.0978 11.29V18.148C69.0978 18.472 69.1218 18.772 69.1698 19.048C69.2298 19.312 69.3378 19.528 69.4938 19.696C69.6618 19.852 69.9018 19.93 70.2138 19.93C70.5498 19.93 70.7898 19.846 70.9338 19.678C71.0778 19.498 71.1678 19.27 71.2038 18.994C71.2398 18.718 71.2578 18.436 71.2578 18.148V16.618H74.4078V17.878C74.4078 18.706 74.2818 19.45 74.0298 20.11C73.7898 20.758 73.3638 21.274 72.7518 21.658C72.1518 22.03 71.3058 22.216 70.2138 22.216ZM76.1443 22V7.42H79.0603V22H76.1443ZM84.3778 22.18C83.6338 22.18 82.9858 22.054 82.4338 21.802C81.8938 21.55 81.4738 21.172 81.1738 20.668C80.8858 20.164 80.7418 19.534 80.7418 18.778V14.818C80.7418 14.062 80.8858 13.432 81.1738 12.928C81.4738 12.424 81.8938 12.046 82.4338 11.794C82.9858 11.542 83.6338 11.416 84.3778 11.416C85.1218 11.416 85.7638 11.542 86.3038 11.794C86.8558 12.046 87.2818 12.424 87.5818 12.928C87.8818 13.432 88.0318 14.062 88.0318 14.818V18.778C88.0318 19.534 87.8818 20.164 87.5818 20.668C87.2818 21.172 86.8558 21.55 86.3038 21.802C85.7638 22.054 85.1218 22.18 84.3778 22.18ZM84.3958 20.236C84.5878 20.236 84.7378 20.188 84.8458 20.092C84.9538 19.984 85.0258 19.84 85.0618 19.66C85.1098 19.468 85.1338 19.24 85.1338 18.976V14.62C85.1338 14.356 85.1098 14.134 85.0618 13.954C85.0258 13.762 84.9538 13.618 84.8458 13.522C84.7378 13.414 84.5878 13.36 84.3958 13.36C84.2038 13.36 84.0538 13.414 83.9458 13.522C83.8378 13.618 83.7598 13.762 83.7118 13.954C83.6638 14.134 83.6398 14.356 83.6398 14.62V18.976C83.6398 19.24 83.6638 19.468 83.7118 19.66C83.7598 19.84 83.8378 19.984 83.9458 20.092C84.0538 20.188 84.2038 20.236 84.3958 20.236ZM91.009 22L88.921 11.596H91.729L92.593 18.238L93.385 11.596H96.193L94.051 22H91.009ZM100.637 22.18C99.8811 22.18 99.2331 22.048 98.6931 21.784C98.1531 21.508 97.7391 21.112 97.4511 20.596C97.1631 20.068 97.0191 19.438 97.0191 18.706V14.89C97.0191 14.146 97.1631 13.516 97.4511 13C97.7391 12.484 98.1531 12.094 98.6931 11.83C99.2451 11.554 99.8931 11.416 100.637 11.416C101.405 11.416 102.041 11.548 102.545 11.812C103.061 12.076 103.445 12.466 103.697 12.982C103.961 13.498 104.093 14.134 104.093 14.89V16.978H99.9171V18.976C99.9171 19.24 99.9471 19.456 100.007 19.624C100.067 19.792 100.151 19.912 100.259 19.984C100.367 20.056 100.493 20.092 100.637 20.092C100.781 20.092 100.907 20.062 101.015 20.002C101.135 19.93 101.225 19.822 101.285 19.678C101.357 19.534 101.393 19.336 101.393 19.084V17.986H104.093V18.994C104.093 20.05 103.787 20.848 103.175 21.388C102.563 21.916 101.717 22.18 100.637 22.18ZM99.9171 15.61H101.393V14.566C101.393 14.29 101.357 14.074 101.285 13.918C101.225 13.762 101.135 13.654 101.015 13.594C100.907 13.534 100.775 13.504 100.619 13.504C100.475 13.504 100.349 13.54 100.241 13.612C100.145 13.684 100.067 13.81 100.007 13.99C99.9471 14.158 99.9171 14.404 99.9171 14.728V15.61ZM105.726 22V11.596H108.66V13.324C108.996 12.724 109.332 12.268 109.668 11.956C110.004 11.632 110.412 11.47 110.892 11.47C110.988 11.47 111.072 11.476 111.144 11.488C111.216 11.488 111.282 11.5 111.342 11.524V14.44C111.21 14.38 111.06 14.332 110.892 14.296C110.736 14.248 110.568 14.224 110.388 14.224C110.052 14.224 109.74 14.314 109.452 14.494C109.164 14.674 108.9 14.92 108.66 15.232V22H105.726Z" fill="black"/>
<path d="M7.87378 14.9998L18.8818 26.0078" stroke="#454545" stroke-width="2" stroke-linecap="round" stroke-linejoin="round"/>
<path d="M7.88037 25.9985C12.362 21.5169 14.8746 19.0043 19.3562 14.5227" stroke="#454545" stroke-width="2" stroke-linecap="round" stroke-linejoin="round"/>
<path d="M13.3763 31.483C13.0395 31.8862 12.6245 32.2169 12.1564 32.4553C11.6882 32.6937 11.1767 32.8348 10.6525 32.8701C10.1284 32.9054 9.60248 32.8342 9.10661 32.6607C8.61074 32.4872 8.15514 32.2151 7.76731 31.8607C7.37947 31.5064 7.06743 31.0771 6.85001 30.5989C6.63258 30.1207 6.51428 29.6033 6.50224 29.0781C6.49019 28.5529 6.58465 28.0307 6.77993 27.543C6.9752 27.0553 7.26724 26.6122 7.63842 26.2405C7.26666 26.6117 6.82357 26.9037 6.33587 27.099C5.84817 27.2943 5.32597 27.3887 4.80076 27.3767C4.27556 27.3646 3.75824 27.2463 3.28 27.0289C2.80177 26.8115 2.37253 26.4994 2.01817 26.1116C1.66382 25.7238 1.39169 25.2682 1.21821 24.7723C1.04473 24.2764 0.973494 23.7506 1.00879 23.2264C1.04408 22.7022 1.18518 22.1907 1.42358 21.7225C1.66197 21.2544 1.99272 20.8394 2.39587 20.5026C1.99272 20.1657 1.66197 19.7507 1.42358 19.2826C1.18518 18.8145 1.04408 18.3029 1.00879 17.7787C0.973494 17.2546 1.04473 16.7287 1.21821 16.2329C1.39169 15.737 1.66382 15.2814 2.01817 14.8936C2.37253 14.5057 2.80177 14.1937 3.28 13.9762C3.75824 13.7588 4.27556 13.6405 4.80076 13.6285C5.32597 13.6164 5.84817 13.7109 6.33587 13.9062C6.82357 14.1014 7.26666 14.3935 7.63842 14.7647C7.26724 14.3929 6.9752 13.9498 6.77993 13.4621C6.58465 12.9744 6.49019 12.4522 6.50223 11.927C6.51428 11.4018 6.63258 10.8845 6.85001 10.4062C7.06743 9.92801 7.37947 9.49877 7.76731 9.14441C8.15514 8.79006 8.61074 8.51794 9.10661 8.34446C9.60248 8.17098 10.1283 8.09974 10.6525 8.13503C11.1767 8.17033 11.6882 8.31143 12.1564 8.54982C12.6245 8.78821 13.0395 9.11896 13.3763 9.52211C13.7132 9.11896 14.1282 8.78821 14.5963 8.54982C15.0644 8.31143 15.576 8.17033 16.1002 8.13503C16.6243 8.09973 17.1502 8.17098 17.6461 8.34445C18.1419 8.51793 18.5975 8.79006 18.9854 9.14441C19.3732 9.49877 19.6852 9.92801 19.9027 10.4062C20.1201 10.8845 20.2384 11.4018 20.2504 11.927C20.2625 12.4522 20.168 12.9744 19.9727 13.4621C19.7775 13.9498 19.4854 14.3929 19.1142 14.7647C19.486 14.3935 19.9291 14.1014 20.4168 13.9062C20.9045 13.7109 21.4267 13.6164 21.9519 13.6285C22.4771 13.6405 22.9944 13.7588 23.4727 13.9762C23.9509 14.1937 24.3801 14.5057 24.7345 14.8935C25.0888 15.2814 25.361 15.737 25.5344 16.2328C25.7079 16.7287 25.7792 17.2546 25.7439 17.7787C25.7086 18.3029 25.5675 18.8145 25.3291 19.2826C25.0907 19.7507 24.7599 20.1657 24.3568 20.5026C24.7599 20.8394 25.0907 21.2544 25.3291 21.7225C25.5675 22.1907 25.7086 22.7022 25.7439 23.2264C25.7792 23.7506 25.7079 24.2764 25.5345 24.7723C25.361 25.2682 25.0888 25.7238 24.7345 26.1116C24.3801 26.4994 23.9509 26.8115 23.4727 27.0289C22.9944 27.2463 22.4771 27.3646 21.9519 27.3767C21.4267 27.3887 20.9045 27.2943 20.4168 27.099C19.9291 26.9037 19.486 26.6117 19.1142 26.2405C19.8131 27.0014 20.1811 28.0087 20.1372 29.0409C20.0933 30.0731 19.6412 31.0456 18.8803 31.7445C18.1194 32.4433 17.1121 32.8113 16.0799 32.7674C15.0477 32.7236 14.0752 32.2715 13.3763 31.5106" stroke="#454545" stroke-width="2" stroke-linecap="round" stroke-linejoin="round"/>
</svg>
